# xmcd
#
# Track frame offsets:
#	225
#	11298
#	26503
#	41800
#	53748
#	73130
#	89695
#	104880
#	121318
#	132960
#
# Disc length: 1974 seconds
#
# Revision: 1
# Processed by: cddbd v1.5.2PL0 Copyright (c) Steve Scherf et al.
# Submitted via: audiograbber 1.83.01
#
DISCID=8d07b30a
DTITLE=Georges Hamel - En Douceur
DYEAR=1985
DGENRE=Country
TTITLE0=Je Promène Mes Chansons(Georges Hamel-Georges Hamel)
TTITLE1=N'oublions Pas Nos Vieux(Denis Champoux-Denis Champoux)
TTITLE2=L'enfant Du Ciel(Denis Champoux-Denis Champoux)
TTITLE3=La Nature Explose(Georges Hamel-Georges Hamel)
TTITLE4=Souvenir D'un Vieillard(Traditionnelle adapt Georges Hamel)
TTITLE5=Les Enfants Et L'amour(Georges Hamel avec Caroline Hamel)
TTITLE6=Au Bord De La Rivière(Georges Hamel-Georges Hamel)
TTITLE7=Ah! Que C'est Beau(Jean-Guy Huot-Jean-Guy Huot)
TTITLE8=Ecoute Mon Refrain(Georges Hamel-Georges Hamel)
TTITLE9=Je Bois Pour Oublier(Denis Champoux-Denis Champoux)
EXTD=
EXTT0=
EXTT1=
EXTT2=
EXTT3=
EXTT4=
EXTT5=
EXTT6=
EXTT7=
EXTT8=
EXTT9=
PLAYORDER=
